<svg width="80" height="80" viewBox="0 0 80 80" fill="none" xmlns="http://www.w3.org/2000/svg">
<rect width="80" height="80" rx="40" fill="#BDBDBD" style="fill:#BDBDBD;fill:color(display-p3 0.7412 0.7412 0.7412);fill-opacity:1;"/>
<path d="M40.1135 23.2452C41.0262 23.2452 41.7234 22.548 41.7234 21.6226C41.7234 20.7226 41.0008 20 40.1135 20C39.2261 20 38.4908 20.7352 38.4908 21.6226C38.4908 22.5227 39.2134 23.2452 40.1135 23.2452ZM32.3554 27.7074C33.2808 27.7074 33.9779 27.0229 33.9779 26.0848C33.9779 25.1847 33.2554 24.4749 32.3554 24.4749C31.4807 24.4749 30.7454 25.2101 30.7454 26.0848C30.7454 26.9975 31.4553 27.7074 32.3554 27.7074ZM47.8589 27.7074C48.7716 27.7074 49.4689 27.0229 49.4689 26.0848C49.4689 25.1847 48.7589 24.4749 47.8589 24.4749C46.9716 24.4749 46.2363 25.2101 46.2363 26.0848C46.2363 26.9975 46.9588 27.7074 47.8589 27.7074ZM24.6099 32.233C25.5353 32.233 26.2325 31.5484 26.2325 30.623C26.2325 29.723 25.51 29.0131 24.6099 29.0131C23.7226 29.0131 23 29.7357 23 30.623C23 31.523 23.7099 32.233 24.6099 32.233ZM55.5409 32.233C56.4537 32.233 57.1509 31.5484 57.1509 30.623C57.1509 29.7103 56.441 29.0131 55.5409 29.0131C54.6662 29.0131 53.9311 29.7483 53.9311 30.623C53.9311 31.523 54.6409 32.233 55.5409 32.233ZM24.6099 41.2334C25.5227 41.2334 26.2325 40.5235 26.2325 39.6234C26.2325 38.7234 25.51 38.0008 24.6099 38.0008C23.7226 38.0008 23 38.7361 23 39.6234C23 40.5235 23.7099 41.2334 24.6099 41.2334ZM55.5409 41.2334C56.4537 41.2334 57.1509 40.5362 57.1509 39.6234C57.1509 38.7108 56.441 38.0008 55.5409 38.0008C54.6662 38.0008 53.9311 38.7361 53.9311 39.6234C53.9311 40.5235 54.6409 41.2334 55.5409 41.2334ZM24.6099 50.2338C25.5353 50.2338 26.2325 49.5366 26.2325 48.6112C26.2325 47.7112 25.51 47.0012 24.6099 47.0012C23.7352 47.0012 23 47.7365 23 48.6112C23 49.5239 23.7099 50.2338 24.6099 50.2338ZM55.5409 50.2338C56.4663 50.2338 57.1509 49.5492 57.1509 48.6112C57.1509 47.7112 56.441 47.0012 55.5409 47.0012C54.6662 47.0012 53.9311 47.7365 53.9311 48.6112C53.9311 49.5112 54.6409 50.2338 55.5409 50.2338ZM32.3554 54.7593C33.2808 54.7593 33.9779 54.0748 33.9779 53.1494C33.9779 52.2494 33.2554 51.5268 32.3554 51.5268C31.4807 51.5268 30.7454 52.262 30.7454 53.1494C30.7454 54.0495 31.4553 54.7593 32.3554 54.7593ZM47.8589 54.7593C48.7716 54.7593 49.4689 54.0748 49.4689 53.1494C49.4689 52.2494 48.7589 51.5268 47.8589 51.5268C46.9716 51.5268 46.2363 52.262 46.2363 53.1494C46.2363 54.0495 46.9588 54.7593 47.8589 54.7593ZM40.1135 59.2342C41.0262 59.2342 41.7234 58.537 41.7234 57.6116C41.7234 56.7116 41.0008 56.0016 40.1135 56.0016C39.2261 56.0016 38.4908 56.7369 38.4908 57.6116C38.4908 58.5243 39.2134 59.2342 40.1135 59.2342Z" fill="#81858A" style="fill:#81858A;fill:color(display-p3 0.5056 0.5215 0.5417);fill-opacity:1;"/>
<path d="M40.1152 32.8168C41.3448 32.8168 42.3083 31.8533 42.3083 30.6237C42.3083 29.4194 41.3195 28.418 40.1152 28.418C38.9109 28.418 37.9094 29.4321 37.9094 30.6237C37.9094 31.828 38.8983 32.8168 40.1152 32.8168ZM32.3571 37.317C33.5994 37.317 34.5629 36.3409 34.5629 35.1113C34.5629 33.8943 33.5741 32.9055 32.3571 32.9055C31.1782 32.9055 30.1641 33.9196 30.1641 35.1113C30.1641 36.3282 31.1402 37.317 32.3571 37.317ZM47.8607 37.317C49.0903 37.317 50.0537 36.3409 50.0537 35.1113C50.0537 33.8943 49.065 32.9055 47.8607 32.9055C46.669 32.9055 45.6549 33.9196 45.6549 35.1113C45.6549 36.3282 46.6437 37.317 47.8607 37.317ZM32.3571 46.33C33.5868 46.33 34.5629 45.3666 34.5629 44.137C34.5629 42.92 33.5741 41.9312 32.3571 41.9312C31.1655 41.9312 30.1641 42.9327 30.1641 44.137C30.1641 45.3413 31.1528 46.33 32.3571 46.33ZM47.8607 46.33C49.0903 46.33 50.0537 45.3666 50.0537 44.137C50.0537 42.92 49.065 41.9312 47.8607 41.9312C46.6564 41.9312 45.6549 42.9327 45.6549 44.137C45.6549 45.3413 46.6437 46.33 47.8607 46.33ZM40.1152 50.8176C41.3448 50.8176 42.3083 49.8415 42.3083 48.6118C42.3083 47.4075 41.3195 46.4188 40.1152 46.4188C38.9237 46.4188 37.9094 47.433 37.9094 48.6118C37.9094 49.8288 38.8983 50.8176 40.1152 50.8176Z" fill="#81858A" style="fill:#81858A;fill:color(display-p3 0.5056 0.5215 0.5417);fill-opacity:1;"/>
<path d="M40.1134 42.1974C41.5458 42.1974 42.6867 41.0565 42.6867 39.6241C42.6867 38.2043 41.5205 37.0381 40.1134 37.0381C38.7062 37.0381 37.5273 38.217 37.5273 39.6241C37.5273 41.0312 38.6936 42.1974 40.1134 42.1974Z" fill="#81858A" style="fill:#81858A;fill:color(display-p3 0.5056 0.5215 0.5417);fill-opacity:1;"/>
</svg>
