<svg width="80" height="80" viewBox="0 0 80 80" fill="none" xmlns="http://www.w3.org/2000/svg">
<rect width="80" height="80" rx="40" fill="#BDBDBD" style="fill:#BDBDBD;fill:color(display-p3 0.7412 0.7412 0.7412);fill-opacity:1;"/>
<mask id="mask0_281_2416" style="mask-type:alpha" maskUnits="userSpaceOnUse" x="16" y="16" width="48" height="48">
<rect x="16" y="16" width="48" height="48" fill="#D9D9D9" style="fill:#D9D9D9;fill:color(display-p3 0.8510 0.8510 0.8510);fill-opacity:1;"/>
</mask>
<g mask="url(#mask0_281_2416)">
<path d="M46.7 53.4998C45.8 52.5998 45.1167 51.5665 44.65 50.3998C44.1833 49.2331 43.95 48.0665 43.95 46.8998C43.95 45.7331 44.175 44.5831 44.625 43.4498C45.075 42.3165 45.7667 41.2998 46.7 40.3998L50.45 36.6498C50.95 36.1498 51.325 35.5831 51.575 34.9498C51.825 34.3165 51.95 33.6665 51.95 32.9998C51.95 32.3331 51.825 31.6831 51.575 31.0498C51.325 30.4165 50.95 29.8498 50.45 29.3498L48.1 26.9998C47.7 26.5998 47.5083 26.1248 47.525 25.5748C47.5417 25.0248 47.75 24.5498 48.15 24.1498C48.55 23.7498 49.025 23.5498 49.575 23.5498C50.125 23.5498 50.6 23.7498 51 24.1498L53.3 26.4998C54.2 27.3998 54.875 28.4165 55.325 29.5498C55.775 30.6831 56 31.8331 56 32.9998C56 34.1665 55.775 35.3081 55.325 36.4248C54.875 37.5415 54.2 38.5498 53.3 39.4498L49.55 43.1998C49.0167 43.7331 48.625 44.3165 48.375 44.9498C48.125 45.5831 48 46.2331 48 46.8998C48 47.5665 48.125 48.2248 48.375 48.8748C48.625 49.5248 49.0167 50.1165 49.55 50.6498L51.9 52.9998C52.3 53.3998 52.5 53.8665 52.5 54.3998C52.5 54.9331 52.3 55.3998 51.9 55.7998C51.5 56.1998 51.025 56.3998 50.475 56.3998C49.925 56.3998 49.45 56.1998 49.05 55.7998L46.7 53.4998ZM36.7 53.4998C35.8 52.5998 35.125 51.5748 34.675 50.4248C34.225 49.2748 34 48.1165 34 46.9498C34 45.7831 34.225 44.6248 34.675 43.4748C35.125 42.3248 35.8 41.2998 36.7 40.3998L40.45 36.6498C40.95 36.1498 41.325 35.5831 41.575 34.9498C41.825 34.3165 41.95 33.6665 41.95 32.9998C41.95 32.3331 41.825 31.6831 41.575 31.0498C41.325 30.4165 40.95 29.8498 40.45 29.3498L38.1 26.9998C37.7333 26.6331 37.5417 26.1748 37.525 25.6248C37.5083 25.0748 37.7 24.5998 38.1 24.1998C38.4667 23.7998 38.9333 23.5915 39.5 23.5748C40.0667 23.5581 40.55 23.7498 40.95 24.1498L43.3 26.4998C44.2 27.3998 44.875 28.4165 45.325 29.5498C45.775 30.6831 46 31.8331 46 32.9998C46 34.1665 45.775 35.3081 45.325 36.4248C44.875 37.5415 44.2 38.5498 43.3 39.4498L39.55 43.1998C39.0167 43.7331 38.625 44.3165 38.375 44.9498C38.125 45.5831 38 46.2331 38 46.8998C38 47.5665 38.125 48.2248 38.375 48.8748C38.625 49.5248 39.0167 50.1165 39.55 50.6498L41.9 52.9998C42.3 53.3998 42.5 53.8665 42.5 54.3998C42.5 54.9331 42.3 55.3998 41.9 55.7998C41.5 56.1998 41.025 56.3998 40.475 56.3998C39.925 56.3998 39.45 56.1998 39.05 55.7998L36.7 53.4998ZM26.7 53.4498C25.8 52.5498 25.125 51.5331 24.675 50.3998C24.225 49.2665 24 48.1165 24 46.9498C24 45.7831 24.225 44.6248 24.675 43.4748C25.125 42.3248 25.8 41.2998 26.7 40.3998L30.45 36.5998C30.95 36.0998 31.325 35.5331 31.575 34.8998C31.825 34.2665 31.95 33.6165 31.95 32.9498C31.95 32.2831 31.825 31.6331 31.575 30.9998C31.325 30.3665 30.95 29.7998 30.45 29.2998L28.1 26.9498C27.7333 26.5831 27.5417 26.1248 27.525 25.5748C27.5083 25.0248 27.7 24.5498 28.1 24.1498C28.4667 23.7831 28.9333 23.5998 29.5 23.5998C30.0667 23.5998 30.5333 23.7831 30.9 24.1498L33.3 26.4998C34.2 27.3998 34.875 28.4165 35.325 29.5498C35.775 30.6831 36 31.8331 36 32.9998C36 34.1665 35.775 35.3081 35.325 36.4248C34.875 37.5415 34.2 38.5498 33.3 39.4498L29.55 43.1998C29.0167 43.7331 28.625 44.3248 28.375 44.9748C28.125 45.6248 28 46.2831 28 46.9498C28 47.6165 28.125 48.2665 28.375 48.8998C28.625 49.5331 29.0167 50.1165 29.55 50.6498L31.9 52.9998C32.3 53.3998 32.4917 53.8665 32.475 54.3998C32.4583 54.9331 32.25 55.3998 31.85 55.7998C31.45 56.1665 30.9833 56.3581 30.45 56.3748C29.9167 56.3915 29.45 56.1998 29.05 55.7998L26.7 53.4498Z" fill="#81858A" style="fill:#81858A;fill:color(display-p3 0.5056 0.5215 0.5417);fill-opacity:1;"/>
</g>
</svg>
