<svg width="80" height="80" viewBox="0 0 80 80" fill="none" xmlns="http://www.w3.org/2000/svg">
<rect width="80" height="80" rx="40" fill="#BDBDBD" style="fill:#BDBDBD;fill:color(display-p3 0.7412 0.7412 0.7412);fill-opacity:1;"/>
<path d="M39.5835 39.2131L56.9795 29.3993C56.7362 29.1561 56.4501 28.9415 56.0352 28.7269L42.6019 21.1018C41.572 20.5153 40.5705 20.2148 39.5835 20.2148C38.5963 20.2148 37.5949 20.5153 36.5649 21.1018L23.1316 28.7269C22.731 28.9415 22.4306 29.1561 22.1874 29.3993L39.5835 39.2131ZM38.439 59.9568V41.2159L21.1431 31.4307C21.0429 31.7883 21 32.1889 21 32.7039V47.296C21 49.6851 21.8154 50.6292 23.432 51.5448L38.0527 59.785C38.1814 59.8565 38.3102 59.9281 38.439 59.9568ZM40.7279 59.9568C40.8566 59.9281 40.9854 59.8565 41.1142 59.785L55.7348 51.5448C57.3513 50.6292 58.1668 49.6851 58.1668 47.296V32.7039C58.1668 32.1889 58.1239 31.7883 58.0237 31.4307L40.7279 41.2159V59.9568Z" fill="#81858A" style="fill:#81858A;fill:color(display-p3 0.5056 0.5215 0.5417);fill-opacity:1;"/>
</svg>
