<svg width="64" height="64" viewBox="0 0 64 64" fill="none" xmlns="http://www.w3.org/2000/svg">
<rect width="64" height="64" rx="32" fill="#D7E8FF" style="fill:#D7E8FF;fill:color(display-p3 0.8431 0.9098 1.0000);fill-opacity:1;"/>
<path d="M22.7382 42.3463C21.3507 42.3463 20.1496 42.0688 19.135 41.5138C18.129 40.9675 17.3528 40.226 16.8065 39.2894C16.2688 38.3528 16 37.2992 16 36.1285C16 35.1832 16.1821 34.3117 16.5463 33.5138C16.9192 32.716 17.4396 32.0309 18.1073 31.4585C18.7837 30.8775 19.5772 30.4482 20.4878 30.1707C20.6352 28.8439 20.9995 27.6211 21.5805 26.5024C22.1615 25.3837 22.9073 24.4125 23.8179 23.5886C24.7371 22.7648 25.7734 22.1274 26.9268 21.6764C28.0802 21.2255 29.303 21 30.5951 21C32.5984 21 34.3762 21.4856 35.9285 22.4569C37.4808 23.4195 38.6992 24.7724 39.5837 26.5154C40.7978 26.5154 41.9165 26.7149 42.9398 27.1138C43.9631 27.5127 44.852 28.0721 45.6065 28.7919C46.361 29.503 46.9463 30.3398 47.3626 31.3024C47.7875 32.265 48 33.31 48 34.4374C48 35.5474 47.7919 36.5837 47.3756 37.5463C46.968 38.5089 46.3957 39.3501 45.6585 40.0699C44.9214 40.781 44.0585 41.336 43.0699 41.735C42.09 42.1425 41.0276 42.3463 39.8829 42.3463H22.7382ZM22.7642 39.6407H39.935C40.9583 39.6407 41.8688 39.4152 42.6667 38.9642C43.4732 38.5133 44.1106 37.9019 44.5789 37.1301C45.0472 36.3496 45.2813 35.4737 45.2813 34.5024C45.2813 33.5051 45.0341 32.6076 44.5398 31.8098C44.0542 31.0119 43.3431 30.3832 42.4065 29.9236C41.4699 29.464 40.3339 29.2341 38.9984 29.2341C38.5821 29.2341 38.2612 29.1691 38.0358 29.039C37.8103 28.9089 37.6152 28.6748 37.4504 28.3366C36.9474 27.348 36.3534 26.5111 35.6683 25.826C34.9832 25.1322 34.2157 24.6076 33.3659 24.252C32.516 23.8878 31.5924 23.7057 30.5951 23.7057C29.6065 23.7057 28.6786 23.8878 27.8114 24.252C26.9528 24.6076 26.1897 25.1236 25.522 25.8C24.8629 26.4678 24.3209 27.2612 23.8959 28.1805C23.4797 29.0911 23.2152 30.097 23.1024 31.1984C23.0591 31.6233 22.955 31.9312 22.7902 32.122C22.6341 32.3041 22.3696 32.4428 21.9967 32.5382C20.9301 32.8244 20.1149 33.2797 19.5512 33.9041C18.9875 34.5285 18.7057 35.2959 18.7057 36.2065C18.7057 36.9003 18.8661 37.5073 19.187 38.0276C19.5079 38.5393 19.9718 38.9382 20.5789 39.2244C21.1859 39.5019 21.9144 39.6407 22.7642 39.6407Z" fill="#202020" style="fill:#202020;fill:color(display-p3 0.1250 0.1250 0.1250);fill-opacity:1;"/>
</svg>
