<svg width="64" height="64" viewBox="0 0 64 64" fill="none" xmlns="http://www.w3.org/2000/svg">
<rect width="64" height="64" rx="32" fill="#D7E8FF" style="fill:#D7E8FF;fill:color(display-p3 0.8431 0.9098 1.0000);fill-opacity:1;"/>
<path d="M32.0367 17.5507C31.5378 17.5507 31.1172 17.3795 30.7749 17.0371C30.4325 16.685 30.2613 16.2644 30.2613 15.7753C30.2613 15.2863 30.4325 14.8705 30.7749 14.5282C31.127 14.1761 31.5476 14 32.0367 14C32.5258 14 32.9415 14.1761 33.2838 14.5282C33.6262 14.8705 33.7973 15.2863 33.7973 15.7753C33.7973 16.2742 33.6262 16.6948 33.2838 17.0371C32.9512 17.3795 32.5355 17.5507 32.0367 17.5507ZM24.8913 21.6589C24.4023 21.6589 23.9817 21.4877 23.6295 21.1453C23.2872 20.7932 23.116 20.3726 23.116 19.8835C23.116 19.4042 23.2921 18.9885 23.6442 18.6364C23.9963 18.2843 24.412 18.1082 24.8913 18.1082C25.3902 18.1082 25.8108 18.2843 26.1531 18.6364C26.4955 18.9788 26.6667 19.3945 26.6667 19.8835C26.6667 20.3824 26.4955 20.803 26.1531 21.1453C25.8206 21.4877 25.4 21.6589 24.8913 21.6589ZM39.1527 21.6589C38.6636 21.6589 38.243 21.4877 37.8909 21.1453C37.5485 20.7932 37.3773 20.3726 37.3773 19.8835C37.3773 19.4042 37.5534 18.9885 37.9055 18.6364C38.2577 18.2843 38.6734 18.1082 39.1527 18.1082C39.6515 18.1082 40.0721 18.2843 40.4145 18.6364C40.7666 18.9788 40.9427 19.3945 40.9427 19.8835C40.9427 20.3824 40.7715 20.803 40.4292 21.1453C40.0868 21.4877 39.6613 21.6589 39.1527 21.6589ZM17.7607 25.8258C17.2716 25.8258 16.8559 25.6546 16.5135 25.3122C16.1712 24.9601 16 24.5395 16 24.0504C16 23.5711 16.1712 23.1603 16.5135 22.818C16.8657 22.4658 17.2814 22.2898 17.7607 22.2898C18.2595 22.2898 18.6801 22.461 19.0225 22.8033C19.3648 23.1457 19.536 23.5614 19.536 24.0504C19.536 24.5591 19.3648 24.9846 19.0225 25.3269C18.6899 25.6595 18.2693 25.8258 17.7607 25.8258ZM32.0367 26.398C31.3813 26.398 30.8238 26.1681 30.3641 25.7084C29.9043 25.2487 29.6745 24.696 29.6745 24.0504C29.6745 23.4146 29.9043 22.8669 30.3641 22.4072C30.8336 21.9376 31.3911 21.7029 32.0367 21.7029C32.6823 21.7029 33.23 21.9376 33.68 22.4072C34.1397 22.8669 34.3696 23.4146 34.3696 24.0504C34.3696 24.7058 34.1397 25.2633 33.68 25.7231C33.23 26.173 32.6823 26.398 32.0367 26.398ZM46.2393 25.8258C45.7503 25.8258 45.3297 25.6546 44.9775 25.3122C44.6352 24.9699 44.464 24.5493 44.464 24.0504C44.464 23.5711 44.6401 23.1603 44.9922 22.818C45.3443 22.4658 45.76 22.2898 46.2393 22.2898C46.7284 22.2898 47.1441 22.461 47.4865 22.8033C47.8288 23.1457 48 23.5614 48 24.0504C48 24.5493 47.8288 24.9699 47.4865 25.3122C47.1539 25.6546 46.7382 25.8258 46.2393 25.8258ZM24.8913 30.5355C24.2458 30.5355 23.6931 30.3057 23.2334 29.8459C22.7737 29.3862 22.5438 28.8336 22.5438 28.188C22.5438 27.5522 22.7737 27.0044 23.2334 26.5447C23.7029 26.0752 24.2555 25.8404 24.8913 25.8404C25.5369 25.8404 26.0896 26.0703 26.5493 26.53C27.0188 26.9898 27.2536 27.5424 27.2536 28.188C27.2536 28.8531 27.0237 29.4107 26.564 29.8606C26.1042 30.3106 25.5467 30.5355 24.8913 30.5355ZM39.1527 30.5355C38.5071 30.5355 37.9545 30.3106 37.4947 29.8606C37.0448 29.4009 36.8198 28.8433 36.8198 28.188C36.8198 27.5522 37.0497 27.0044 37.5094 26.5447C37.9691 26.0752 38.5169 25.8404 39.1527 25.8404C39.808 25.8404 40.3656 26.0703 40.8253 26.53C41.285 26.9898 41.5149 27.5424 41.5149 28.188C41.5149 28.8531 41.285 29.4107 40.8253 29.8606C40.3754 30.3106 39.8178 30.5355 39.1527 30.5355ZM17.7607 34.1155C17.2716 34.1155 16.8559 33.9444 16.5135 33.602C16.1712 33.2499 16 32.8293 16 32.3402C16 31.8511 16.1712 31.4354 16.5135 31.0931C16.8657 30.7409 17.2814 30.5649 17.7607 30.5649C18.2595 30.5649 18.6801 30.7409 19.0225 31.0931C19.3648 31.4354 19.536 31.8511 19.536 32.3402C19.536 32.8391 19.3648 33.2597 19.0225 33.602C18.6801 33.9444 18.2595 34.1155 17.7607 34.1155ZM32.0367 35.0839C31.528 35.0839 31.0683 34.9616 30.6575 34.7171C30.2467 34.4628 29.9141 34.1302 29.6598 33.7194C29.4153 33.2988 29.293 32.8391 29.293 32.3402C29.293 31.8414 29.4153 31.3865 29.6598 30.9757C29.9141 30.5551 30.2467 30.2225 30.6575 29.978C31.0683 29.7237 31.528 29.5965 32.0367 29.5965C32.5355 29.5965 32.9904 29.7237 33.4012 29.978C33.812 30.2225 34.1397 30.5551 34.3842 30.9757C34.6385 31.3865 34.7657 31.8414 34.7657 32.3402C34.7657 33.1032 34.4967 33.7536 33.9587 34.2916C33.4305 34.8198 32.7899 35.0839 32.0367 35.0839ZM46.2393 34.1155C45.7503 34.1155 45.3297 33.9444 44.9775 33.602C44.6352 33.2499 44.464 32.8293 44.464 32.3402C44.464 31.8609 44.6401 31.4452 44.9922 31.0931C45.3443 30.7409 45.76 30.5649 46.2393 30.5649C46.7284 30.5649 47.1441 30.7409 47.4865 31.0931C47.8288 31.4354 48 31.8511 48 32.3402C48 32.8391 47.8288 33.2597 47.4865 33.602C47.1539 33.9444 46.7382 34.1155 46.2393 34.1155ZM24.8913 38.84C24.2458 38.84 23.6931 38.6101 23.2334 38.1504C22.7737 37.6907 22.5438 37.138 22.5438 36.4924C22.5438 35.8566 22.7737 35.3089 23.2334 34.8491C23.7029 34.3796 24.2555 34.1449 24.8913 34.1449C25.5369 34.1449 26.0896 34.3748 26.5493 34.8345C27.0188 35.2844 27.2536 35.8371 27.2536 36.4924C27.2536 37.1478 27.0237 37.7053 26.564 38.1651C26.1042 38.615 25.5467 38.84 24.8913 38.84ZM39.1527 38.84C38.5071 38.84 37.9545 38.6101 37.4947 38.1504C37.0448 37.6907 36.8198 37.138 36.8198 36.4924C36.8198 35.8469 37.0497 35.2942 37.5094 34.8345C37.9691 34.3748 38.5169 34.1449 39.1527 34.1449C39.808 34.1449 40.3656 34.3748 40.8253 34.8345C41.285 35.2844 41.5149 35.8371 41.5149 36.4924C41.5149 37.1478 41.285 37.7053 40.8253 38.1651C40.3754 38.615 39.8178 38.84 39.1527 38.84ZM17.7607 42.3906C17.2716 42.3906 16.8559 42.2195 16.5135 41.8771C16.1712 41.5348 16 41.1142 16 40.6153C16 40.136 16.1712 39.7252 16.5135 39.3829C16.8657 39.0307 17.2814 38.8547 17.7607 38.8547C18.2595 38.8547 18.6801 39.0258 19.0225 39.3682C19.3648 39.7007 19.536 40.1165 19.536 40.6153C19.536 41.1142 19.3697 41.5348 19.0371 41.8771C18.7046 42.2195 18.2791 42.3906 17.7607 42.3906ZM32.0367 42.9629C31.3813 42.9629 30.8238 42.733 30.3641 42.2733C29.9043 41.8135 29.6745 41.2609 29.6745 40.6153C29.6745 39.9893 29.9043 39.4415 30.3641 38.972C30.8336 38.5025 31.3911 38.2678 32.0367 38.2678C32.6823 38.2678 33.23 38.4976 33.68 38.9574C34.1397 39.4171 34.3696 39.9697 34.3696 40.6153C34.3696 41.2707 34.1397 41.8282 33.68 42.2879C33.23 42.7379 32.6823 42.9629 32.0367 42.9629ZM46.2393 42.3906C45.7503 42.3906 45.3297 42.2195 44.9775 41.8771C44.6352 41.5348 44.464 41.1142 44.464 40.6153C44.464 40.1262 44.6401 39.7105 44.9922 39.3682C45.3443 39.0258 45.76 38.8547 46.2393 38.8547C46.7284 38.8547 47.1441 39.0258 47.4865 39.3682C47.8288 39.7105 48 40.1262 48 40.6153C48 41.1239 47.8288 41.5494 47.4865 41.8918C47.1539 42.2244 46.7382 42.3906 46.2393 42.3906ZM24.8913 46.5575C24.4023 46.5575 23.9817 46.3864 23.6295 46.044C23.2872 45.7017 23.116 45.286 23.116 44.7969C23.116 44.3078 23.2921 43.8872 23.6442 43.5351C23.9963 43.1927 24.412 43.0215 24.8913 43.0215C25.3902 43.0215 25.8108 43.1927 26.1531 43.5351C26.4955 43.8774 26.6667 44.298 26.6667 44.7969C26.6667 45.2957 26.4955 45.7114 26.1531 46.044C25.8206 46.3864 25.4 46.5575 24.8913 46.5575ZM39.1527 46.5575C38.6636 46.5575 38.243 46.3864 37.8909 46.044C37.5485 45.7017 37.3773 45.286 37.3773 44.7969C37.3773 44.3078 37.5534 43.8872 37.9055 43.5351C38.2577 43.1927 38.6734 43.0215 39.1527 43.0215C39.6515 43.0215 40.0721 43.1927 40.4145 43.5351C40.7666 43.8774 40.9427 44.298 40.9427 44.7969C40.9427 45.2957 40.7715 45.7114 40.4292 46.044C40.0868 46.3864 39.6613 46.5575 39.1527 46.5575ZM32.0367 50.6804C31.5378 50.6804 31.1172 50.5044 30.7749 50.1522C30.4325 49.8099 30.2613 49.3942 30.2613 48.9051C30.2613 48.4258 30.4325 48.0101 30.7749 47.658C31.127 47.3058 31.5476 47.1298 32.0367 47.1298C32.5258 47.1298 32.9415 47.3009 33.2838 47.6433C33.6262 47.9856 33.7973 48.4062 33.7973 48.9051C33.7973 49.4039 33.6262 49.8245 33.2838 50.1669C32.9512 50.5092 32.5355 50.6804 32.0367 50.6804Z" fill="#202020" style="fill:#202020;fill:color(display-p3 0.1250 0.1250 0.1250);fill-opacity:1;"/>
</svg>
