<svg width="64" height="64" viewBox="0 0 64 64" fill="none" xmlns="http://www.w3.org/2000/svg">
<rect width="64" height="64" rx="32" fill="#D7E8FF" style="fill:#D7E8FF;fill:color(display-p3 0.8431 0.9098 1.0000);fill-opacity:1;"/>
<path d="M31.9062 34.4531C31.0104 34.4531 30.25 34.3438 29.625 34.125C29 33.9062 28.4583 33.6406 28 33.3281C27.5521 33.0052 27.1458 32.6875 26.7812 32.375C26.4167 32.0521 26.0469 31.7812 25.6719 31.5625C25.3073 31.3438 24.8854 31.2344 24.4062 31.2344C23.9167 31.2344 23.4896 31.3438 23.125 31.5625C22.7604 31.7812 22.3958 32.0521 22.0312 32.375C21.6771 32.6875 21.2656 33.0052 20.7969 33.3281C20.3281 33.6406 19.75 33.9062 19.0625 34.125C18.375 34.3438 17.526 34.4531 16.5156 34.4531H16.4219C16.026 34.4531 15.6875 34.3177 15.4062 34.0469C15.1354 33.7656 15 33.4323 15 33.0469C15 32.651 15.1354 32.3177 15.4062 32.0469C15.6875 31.7656 16.026 31.625 16.4219 31.625H16.5156C17.2552 31.625 17.8906 31.4896 18.4219 31.2188C18.9531 30.9479 19.5365 30.5833 20.1719 30.125C20.6927 29.7604 21.2969 29.3854 21.9844 29C22.6719 28.6146 23.4792 28.4219 24.4062 28.4219C25.3542 28.4219 26.1771 28.625 26.875 29.0312C27.5729 29.4271 28.1771 29.8125 28.6875 30.1875C29.2292 30.6042 29.7344 30.9479 30.2031 31.2188C30.6823 31.4896 31.25 31.625 31.9062 31.625C32.5625 31.625 33.125 31.4896 33.5938 31.2188C34.0729 30.9479 34.5833 30.6042 35.125 30.1875C35.6458 29.8125 36.2552 29.4271 36.9531 29.0312C37.651 28.625 38.474 28.4219 39.4219 28.4219C40.3385 28.4219 41.1406 28.6146 41.8281 29C42.526 29.3854 43.1354 29.7604 43.6562 30.125C44.2812 30.5833 44.8594 30.9479 45.3906 31.2188C45.9219 31.4896 46.5573 31.625 47.2969 31.625H47.4062C47.7917 31.625 48.1198 31.7656 48.3906 32.0469C48.6719 32.3177 48.8125 32.651 48.8125 33.0469C48.8125 33.4323 48.6719 33.7656 48.3906 34.0469C48.1198 34.3177 47.7917 34.4531 47.4062 34.4531H47.2969C46.276 34.4531 45.4271 34.3438 44.75 34.125C44.0729 33.9062 43.4948 33.6406 43.0156 33.3281C42.5469 33.0052 42.1302 32.6875 41.7656 32.375C41.4115 32.0521 41.0521 31.7812 40.6875 31.5625C40.3229 31.3438 39.901 31.2344 39.4219 31.2344C38.9427 31.2344 38.5156 31.3438 38.1406 31.5625C37.776 31.7812 37.4115 32.0521 37.0469 32.375C36.6823 32.6875 36.2708 33.0052 35.8125 33.3281C35.3646 33.6406 34.8281 33.9062 34.2031 34.125C33.5781 34.3438 32.8125 34.4531 31.9062 34.4531ZM31.9062 39.875C31.0104 39.875 30.25 39.7656 29.625 39.5469C29 39.3385 28.4583 39.0729 28 38.75C27.6488 38.4968 27.3232 38.2468 27.0232 38C26.9406 37.932 26.8599 37.8643 26.7812 37.7969C26.4167 37.474 26.0469 37.2083 25.6719 37C25.3073 36.7812 24.8854 36.6719 24.4062 36.6719C23.9167 36.6719 23.4896 36.7812 23.125 37C22.7604 37.2083 22.3958 37.474 22.0312 37.7969C21.9548 37.8643 21.8757 37.932 21.7939 38C21.4968 38.2468 21.1644 38.4968 20.7969 38.75C20.7875 38.7565 20.7781 38.7629 20.7686 38.7693C20.3049 39.0835 19.7362 39.3427 19.0625 39.5469C18.9213 39.5918 18.7734 39.6321 18.6186 39.6678C18.0196 39.8059 17.3186 39.875 16.5156 39.875H16.4219C16.026 39.875 15.6875 39.7344 15.4062 39.4531C15.1354 39.1823 15 38.8542 15 38.4688C15 38.0833 15.1354 37.7552 15.4062 37.4844C15.6875 37.2031 16.026 37.0625 16.4219 37.0625H16.5156C17.2552 37.0625 17.8906 36.9271 18.4219 36.6562C18.9531 36.375 19.5365 36.0104 20.1719 35.5625C20.6927 35.1875 21.2969 34.8073 21.9844 34.4219C22.6719 34.0365 23.4792 33.8438 24.4062 33.8438C25.3542 33.8438 26.1771 34.0469 26.875 34.4531C27.5729 34.849 28.1771 35.2344 28.6875 35.6094C29.2292 36.026 29.7344 36.375 30.2031 36.6562C30.6823 36.9271 31.25 37.0625 31.9062 37.0625C32.5625 37.0625 33.125 36.9271 33.5938 36.6562C34.0729 36.375 34.5833 36.026 35.125 35.6094C35.6458 35.2344 36.2552 34.849 36.9531 34.4531C37.651 34.0469 38.474 33.8438 39.4219 33.8438C40.3385 33.8438 41.1406 34.0365 41.8281 34.4219C42.526 34.8073 43.1354 35.1875 43.6562 35.5625C44.2812 36.0104 44.8594 36.375 45.3906 36.6562C45.9219 36.9271 46.5573 37.0625 47.2969 37.0625H47.4062C47.7917 37.0625 48.1198 37.2031 48.3906 37.4844C48.6719 37.7552 48.8125 38.0833 48.8125 38.4688C48.8125 38.8542 48.6719 39.1823 48.3906 39.4531C48.1198 39.7344 47.7917 39.875 47.4062 39.875H47.2969C46.276 39.875 45.4271 39.7656 44.75 39.5469C44.6473 39.5153 44.5469 39.4824 44.4488 39.4481C43.8998 39.2567 43.4221 39.0239 43.0156 38.75C42.7592 38.5734 42.5184 38.3983 42.2932 38.2248C42.2027 38.1551 42.1147 38.0856 42.0293 38.0164C41.9385 37.943 41.8507 37.8698 41.7656 37.7969C41.4115 37.474 41.0521 37.2083 40.6875 37C40.3229 36.7812 39.901 36.6719 39.4219 36.6719C38.9427 36.6719 38.5156 36.7812 38.1406 37C37.776 37.2083 37.4115 37.474 37.0469 37.7969C36.9682 37.8643 36.8873 37.932 36.8042 38C36.5025 38.2468 36.1719 38.4968 35.8125 38.75C35.3646 39.0729 34.8281 39.3385 34.2031 39.5469C33.5781 39.7656 32.8125 39.875 31.9062 39.875Z" fill="black" style="fill:black;fill:black;fill-opacity:1;"/>
<path fill-rule="evenodd" clip-rule="evenodd" d="M38.5296 21.4111C38.1746 20.9907 37.9656 20.7667 37.3593 20.5019C36.7529 20.2372 36 20.5 36 20.5L33.6955 16.1364C33.2691 15.6313 32.792 15.2956 32.2641 15.1293C31.7363 14.9569 31.205 14.9569 30.6704 15.1293C30.1425 15.2956 29.6654 15.6344 29.239 16.1456L27 20.5C27 20.5 26.1531 20.2529 25.5606 20.5329C24.9681 20.813 24.7939 21.0174 24.4578 21.4203L17 32H19.7113L26.1531 22.6306C26.302 22.4581 26.4813 22.3719 26.6911 22.3719C26.9009 22.3719 27.0769 22.455 27.219 22.6213C27.5 23 28 23 28.5 22.5C29.5 20.5 28.5 22.5 29.5 20.5C30.9343 17.3558 30.9343 17.3558 30.9343 17.3558C31.0832 17.1834 31.2625 17.0972 31.4723 17.0972C31.6821 17.0972 31.8581 17.1803 32.0002 17.3466C32.0002 17.3466 32.0002 17.3466 34.0731 21.4203C34.5 22.5 34.0731 21.4203 34.5 22.5C34.6699 22.6699 35 23 35.7684 22.6306C35.9173 22.4581 36.0966 22.3719 36.3064 22.3719C36.5162 22.3719 36.6921 22.455 36.8343 22.6213L43.2807 32H46L38.5296 21.4111Z" fill="black" style="fill:black;fill:black;fill-opacity:1;"/>
<path d="M42 38C42 38 40.6577 36.3446 39.4219 36.3059C38.136 36.2656 36.8042 38 36.8042 38C36.5025 38.2468 36.1719 38.4968 35.8125 38.75C35.3646 39.0729 34.8281 39.3385 34.2031 39.5469C33.5781 39.7656 32.8125 39.875 31.9062 39.875C31.0104 39.875 30.25 39.7656 29.625 39.5469C29 39.3385 28.4583 39.0729 28 38.75C27.6488 38.4968 27.3232 38.2468 27.0232 38C27.0232 38 25.7566 36.0425 24.5 36C23.1867 35.9556 21.7939 38 21.7939 38C21.4968 38.2468 21.1644 38.4968 20.7969 38.75C20.7875 38.7565 20.7781 38.7629 20.7686 38.7693C20.7686 38.7693 22.0761 41.1858 23 42.5C24.0083 43.9344 25 45.5 25.5 45.5C26 45.5 26.4655 45.1353 26.7878 44.9568C27.1168 44.7817 27.5018 44.6941 27.9428 44.6941C28.4118 44.6941 28.8178 44.7642 29.1608 44.9043C29.5038 45.0514 29.8083 45.2195 30.0743 45.4087C30.3333 45.5979 30.5748 45.7625 30.7988 45.9026C31.0158 46.0497 31.2398 46.1233 31.4708 46.1233C31.6878 46.1233 31.9083 46.0497 32.1323 45.9026C32.3563 45.7625 32.5978 45.5979 32.8567 45.4087C33.1157 45.2195 33.4202 45.0514 33.7702 44.9043C34.1132 44.7642 34.5157 44.6941 34.9777 44.6941C35.4187 44.6941 35.8002 44.7817 36.1222 44.9568C36.4442 45.132 36.5168 45.4337 37 45.5L42.2122 38.7041C42.3312 38.5429 42.3592 38.3853 42.2962 38.2312C42.2952 38.229 42.2942 38.2269 42.2932 38.2248C42.2027 38.1551 42.1147 38.0856 42.0293 38.0164C42.0262 38.0157 42.0232 38.015 42.0201 38.0143L42 38Z" fill="black" style="fill:black;fill:black;fill-opacity:1;"/>
<path fill-rule="evenodd" clip-rule="evenodd" d="M44.9316 38.3047C44.8604 38.7128 44.6995 39.0939 44.4488 39.4481C43.8998 39.2567 43.4221 39.0239 43.0156 38.75C42.7592 38.5734 42.5184 38.3983 42.2932 38.2248C42.2415 38.1155 42.1535 38.046 42.0293 38.0164L42.0201 38.0143L44.9316 38.3047ZM42.2122 38.7041L37 45.5C37.5604 45.5 39.4219 42.6803 39.4219 42.6803L42.2122 38.7041Z" fill="black" style="fill:black;fill:black;fill-opacity:1;"/>
<path fill-rule="evenodd" clip-rule="evenodd" d="M18.5349 39.5448C18.2479 39.1664 18.0694 38.7566 17.9994 38.3152L20.9068 38.0152C20.7775 38.0447 20.6869 38.1166 20.6349 38.2312C20.5649 38.3853 20.5929 38.5429 20.7189 38.7041L20.7686 38.7693C20.3049 39.0835 19.7362 39.3427 19.0625 39.5469C18.9213 39.5918 18.7734 39.6321 18.6186 39.6678L18.5349 39.5448Z" fill="black" style="fill:black;fill:black;fill-opacity:1;"/>
<path fill-rule="evenodd" clip-rule="evenodd" d="M21.0549 38C21.0009 38 20.9515 38.0051 20.9068 38.0152L21.0549 38ZM42.0201 38.0143L42 38C42.0523 38 41.9765 38.0048 42.0201 38.0143Z" fill="black" style="fill:black;fill:black;fill-opacity:1;"/>
</svg>
