<svg width="64" height="64" viewBox="0 0 64 64" fill="none" xmlns="http://www.w3.org/2000/svg">
<rect width="64" height="64" rx="32" fill="#D7E8FF" style="fill:#D7E8FF;fill:color(display-p3 0.8431 0.9098 1.0000);fill-opacity:1;"/>
<path d="M28.9905 41.4071C28.1684 41.4071 27.4196 41.3094 26.744 41.1141C26.0684 40.9187 25.4865 40.6868 24.9981 40.4182C24.5179 40.1496 24.1475 39.9135 23.8871 39.71C23.3824 39.9461 22.89 40.1211 22.4098 40.235C21.9377 40.349 21.4778 40.406 21.0301 40.406C20.0453 40.406 19.1744 40.1862 18.4174 39.7467C17.6604 39.3071 17.0663 38.7008 16.6349 37.9275C16.2116 37.1461 16 36.2467 16 35.2293C16 34.4886 16.1546 33.7398 16.4639 32.9828C16.7732 32.2177 17.2575 31.4852 17.9168 30.7852C17.3959 30.2073 17.0174 29.5887 16.7814 28.9294C16.5535 28.262 16.4395 27.5986 16.4395 26.9393C16.4395 25.9626 16.6634 25.0347 17.111 24.1557C17.5587 23.2766 18.161 22.54 18.918 21.9458C19.6831 21.3435 20.5377 20.9691 21.4819 20.8226C21.547 20.1145 21.7749 19.4674 22.1656 18.8813C22.5644 18.2872 23.0691 17.7785 23.6795 17.3552C24.29 16.9238 24.9615 16.5901 25.694 16.3541C26.4347 16.118 27.1794 16 27.9283 16C28.6934 16 29.4259 16.1262 30.1259 16.3785C30.8259 16.6227 31.4486 17.0093 31.9939 17.5383C32.5474 17.0093 33.1741 16.6227 33.8741 16.3785C34.5741 16.1262 35.3066 16 36.0717 16C36.8206 16 37.5612 16.118 38.2938 16.3541C39.0345 16.5901 39.71 16.9238 40.3205 17.3552C40.9391 17.7785 41.4437 18.2872 41.8344 18.8813C42.2251 19.4674 42.4571 20.1145 42.5303 20.8226C43.4664 20.9691 44.3129 21.3435 45.0698 21.9458C45.8349 22.54 46.4372 23.2766 46.8768 24.1557C47.3244 25.0347 47.5483 25.9626 47.5483 26.9393C47.5483 27.5986 47.4343 28.262 47.2064 28.9294C46.9785 29.5887 46.6041 30.2073 46.0832 30.7852C46.7425 31.4852 47.2268 32.2177 47.5361 32.9828C47.8454 33.7398 48 34.4886 48 35.2293C48 36.2467 47.7843 37.1461 47.3529 37.9275C46.9215 38.7008 46.3274 39.3071 45.5704 39.7467C44.8216 40.1862 43.9507 40.406 42.9576 40.406C42.5181 40.406 42.0582 40.349 41.578 40.235C41.0978 40.1211 40.6094 39.9461 40.1129 39.71C39.8525 39.9135 39.4781 40.1496 38.9897 40.4182C38.5095 40.6868 37.9316 40.9187 37.256 41.1141C36.5804 41.3094 35.8316 41.4071 35.0095 41.4071C34.5537 41.4071 34.0694 41.3664 33.5567 41.285C33.0439 41.2118 32.523 41.0815 31.9939 40.8943C31.473 41.0815 30.9561 41.2118 30.4433 41.285C29.9306 41.3664 29.4463 41.4071 28.9905 41.4071ZM28.9905 39.1362C29.4625 39.1362 29.9224 39.0874 30.3701 38.9897C30.8259 38.892 31.3672 38.713 31.9939 38.4525C32.6288 38.713 33.17 38.892 33.6177 38.9897C34.0735 39.0874 34.5375 39.1362 35.0095 39.1362C35.8642 39.1362 36.5967 39.0141 37.2072 38.7699C37.8258 38.5258 38.3426 38.2327 38.7577 37.8909C39.1728 37.5409 39.5065 37.2112 39.7589 36.9019C40.3286 37.3415 40.8333 37.6426 41.2728 37.8054C41.7205 37.9601 42.2088 38.0374 42.7379 38.0374C43.5925 38.0374 44.2844 37.7688 44.8134 37.2316C45.3506 36.6944 45.6192 35.9903 45.6192 35.1194C45.6192 34.5415 45.4768 33.984 45.1919 33.4468C44.9152 32.9014 44.3983 32.2828 43.6414 31.591C43.3972 31.3712 43.2792 31.1067 43.2873 30.7974C43.3036 30.4881 43.4094 30.2358 43.6047 30.0404C44.2477 29.4137 44.6751 28.844 44.8867 28.3312C45.0983 27.8103 45.2041 27.2731 45.2041 26.7196C45.2041 26.0033 45.0291 25.3603 44.6791 24.7905C44.3373 24.2126 43.853 23.765 43.2262 23.4475C42.5995 23.1301 41.867 22.9917 41.0286 23.0324C40.7193 23.0487 40.5118 22.9836 40.406 22.8371C40.3001 22.6824 40.2554 22.5319 40.2717 22.3853C40.353 21.5877 40.2106 20.8796 39.8443 20.261C39.4862 19.6424 38.9571 19.1622 38.2572 18.8203C37.5653 18.4703 36.7758 18.2953 35.8886 18.2953C35.0909 18.2953 34.3747 18.4459 33.7398 18.747C33.1049 19.0401 32.523 19.4633 31.9939 20.0168C31.473 19.4633 30.8951 19.0401 30.2602 18.747C29.6335 18.4459 28.9172 18.2953 28.1114 18.2953C27.2242 18.2953 26.4306 18.4703 25.7306 18.8203C25.0388 19.1622 24.5097 19.6424 24.1435 20.261C23.7853 20.8796 23.647 21.5877 23.7283 22.3853C23.7446 22.5319 23.6999 22.6824 23.594 22.8371C23.4882 22.9836 23.2807 23.0487 22.9714 23.0324C22.133 22.9917 21.4005 23.1301 20.7738 23.4475C20.147 23.765 19.6587 24.2126 19.3087 24.7905C18.9587 25.3603 18.7837 26.0033 18.7837 26.7196C18.7837 27.2731 18.8936 27.8103 19.1133 28.3312C19.3331 28.844 19.7604 29.4137 20.3953 30.0404C20.5906 30.2358 20.6924 30.4881 20.7005 30.7974C20.7168 31.1067 20.6028 31.3712 20.3586 31.591C19.6017 32.2828 19.0808 32.9014 18.7959 33.4468C18.5191 33.984 18.3808 34.5415 18.3808 35.1194C18.3808 35.9903 18.6453 36.6944 19.1744 37.2316C19.7116 37.7688 20.4075 38.0374 21.2621 38.0374C21.7912 38.0374 22.2755 37.9601 22.715 37.8054C23.1627 37.6426 23.6714 37.3415 24.2411 36.9019C24.4935 37.2112 24.8272 37.5409 25.2423 37.8909C25.6574 38.2327 26.1702 38.5258 26.7806 38.7699C27.3992 39.0141 28.1358 39.1362 28.9905 39.1362ZM25.4498 35.3758C25.2219 35.3758 25.0266 35.2985 24.8638 35.1438C24.701 34.9811 24.6196 34.7857 24.6196 34.5578C24.6196 34.3299 24.701 34.1346 24.8638 33.9718C25.0266 33.809 25.2219 33.7276 25.4498 33.7276C26.1254 33.7194 26.6789 33.5933 27.1103 33.3491C27.5498 33.1049 27.8754 32.7712 28.087 32.348C28.2986 31.9166 28.4126 31.4079 28.4288 30.8218C28.437 30.6021 28.5184 30.4352 28.673 30.3213C28.8358 30.2073 29.0189 30.1585 29.2224 30.1747C29.4259 30.191 29.5887 30.2928 29.7108 30.48C29.9794 30.8625 30.2968 31.1596 30.6631 31.3712C31.0375 31.5829 31.4811 31.6887 31.9939 31.6887C32.5148 31.6887 32.9584 31.5829 33.3247 31.3712C33.6991 31.1596 34.0165 30.8625 34.277 30.48C34.4072 30.2928 34.5741 30.191 34.7776 30.1747C34.981 30.1585 35.1601 30.2073 35.3148 30.3213C35.4776 30.4352 35.563 30.6021 35.5712 30.8218C35.5874 31.4079 35.7014 31.9166 35.913 32.348C36.1246 32.7712 36.4461 33.1049 36.8775 33.3491C37.3171 33.5933 37.8746 33.7194 38.5502 33.7276C38.7781 33.7276 38.9734 33.809 39.1362 33.9718C39.299 34.1346 39.3804 34.3299 39.3804 34.5578C39.3804 34.7857 39.299 34.9811 39.1362 35.1438C38.9734 35.2985 38.7781 35.3758 38.5502 35.3758C37.4025 35.3758 36.4868 35.1398 35.8031 34.6677C35.1276 34.1875 34.6473 33.5689 34.3625 32.8119C34.0287 33.0317 33.6665 33.1985 33.2758 33.3125C32.8852 33.4183 32.4578 33.4712 31.9939 33.4712C31.5381 33.4712 31.1148 33.4183 30.7242 33.3125C30.3335 33.1985 29.9753 33.0317 29.6498 32.8119C29.3567 33.5689 28.8684 34.1875 28.1847 34.6677C27.501 35.1398 26.5893 35.3758 25.4498 35.3758ZM31.9939 48.1953C31.3916 48.1953 30.9032 48.0977 30.5288 47.9023C30.1625 47.707 29.9794 47.4547 29.9794 47.1454C29.9794 46.8849 29.9957 46.4861 30.0282 45.9489C30.0689 45.4198 30.1056 44.8378 30.1381 44.203C30.1788 43.5762 30.1992 42.9861 30.1992 42.4327C30.1992 41.8955 30.0974 41.2769 29.8939 40.5769C29.6986 39.8688 29.4503 39.1484 29.1492 38.4159C28.8562 37.6833 28.5509 36.9915 28.2335 36.3403C27.9161 35.6892 27.6353 35.1398 27.3911 34.6921C27.1469 34.2363 26.9841 33.9433 26.9027 33.813L28.612 32.6654C28.8073 33.0317 29.0189 33.4264 29.2469 33.8497C29.4829 34.2648 29.7393 34.7491 30.016 35.3026C30.2928 35.8479 30.6021 36.495 30.9439 37.2438V33.1171H33.0561V37.2316C33.3898 36.4828 33.695 35.8357 33.9718 35.2903C34.2566 34.745 34.513 34.2648 34.7409 33.8497C34.977 33.4264 35.1927 33.0317 35.388 32.6654L37.1095 33.813C37.0281 33.9433 36.8612 34.2363 36.6089 34.6921C36.3647 35.1398 36.0839 35.6892 35.7665 36.3403C35.4491 36.9915 35.1398 37.6833 34.8386 38.4159C34.5375 39.1484 34.2892 39.8688 34.0939 40.5769C33.8985 41.2769 33.8008 41.8955 33.8008 42.4327C33.8008 42.9861 33.8171 43.5762 33.8497 44.203C33.8904 44.8378 33.927 45.4198 33.9596 45.9489C34.0003 46.4861 34.0206 46.8849 34.0206 47.1454C34.0206 47.4547 33.8334 47.707 33.459 47.9023C33.0927 48.0977 32.6043 48.1953 31.9939 48.1953Z" fill="#202020" style="fill:#202020;fill:color(display-p3 0.1250 0.1250 0.1250);fill-opacity:1;"/>
</svg>
