<svg width="64" height="64" viewBox="0 0 64 64" fill="none" xmlns="http://www.w3.org/2000/svg">
<rect width="64" height="64" rx="32" fill="#D7E8FF" style="fill:#D7E8FF;fill:color(display-p3 0.8431 0.9098 1.0000);fill-opacity:1;"/>
<path d="M19.6235 44.8768C19.1206 44.8768 18.6702 44.7567 18.2723 44.5165C17.882 44.2838 17.5705 43.9611 17.3378 43.5482C17.1126 43.1429 17 42.6775 17 42.152V39.7987C17 39.0181 17.2139 38.3125 17.6418 37.6819C18.0772 37.0514 18.7678 36.357 19.7136 35.5989C19.8937 35.4563 20.0326 35.2799 20.1302 35.0697C20.2353 34.852 20.3066 34.5292 20.3441 34.1013C20.3892 33.6735 20.4117 33.0654 20.4117 32.2773C20.4117 31.5867 20.4567 30.9374 20.5468 30.3293C20.6369 29.7213 20.7607 29.1621 20.9184 28.6517L20.1302 27.7284C19.7023 27.2179 19.4846 26.715 19.4771 26.2196C19.4696 25.7241 19.6047 25.2813 19.8825 24.8909C20.1602 24.5006 20.5205 24.2078 20.9634 24.0127C21.4138 23.81 21.8829 23.7499 22.3709 23.8325C22.8588 23.9151 23.3054 24.1853 23.7108 24.6432L24.4989 25.5665C24.6341 25.5365 24.7842 25.5102 24.9493 25.4877C25.1145 25.4652 25.2946 25.4502 25.4898 25.4426L33.9346 24.7333C34.5351 24.4856 35.0192 24.2191 35.3871 23.9338C35.7549 23.6411 36.0814 23.3258 36.3666 22.988C36.6519 22.6427 36.9597 22.2674 37.2899 21.8621C37.6277 21.4492 38.0631 20.9913 38.5961 20.4884L39.7558 22.1999C39.4105 22.5527 39.099 22.928 38.8213 23.3258C38.551 23.7162 38.2395 24.114 37.8867 24.5194C37.5414 24.9247 37.091 25.3188 36.5355 25.7016C35.9876 26.0844 35.2594 26.441 34.3512 26.7713L24.8367 27.5595C24.4389 27.5895 24.1386 27.6833 23.936 27.841L22.3371 25.9944C22.1795 25.8067 22.0068 25.7354 21.8191 25.7804C21.639 25.818 21.5151 25.9231 21.4476 26.0957C21.38 26.2608 21.4326 26.4373 21.6052 26.6249L23.2604 28.494C23.0502 28.7492 22.8888 29.087 22.7762 29.5074C22.6711 29.9202 22.5961 30.3706 22.551 30.8586C22.506 31.339 22.4835 31.8119 22.4835 32.2773C22.4835 33.178 22.4384 33.9399 22.3483 34.563C22.2658 35.1785 22.1119 35.6965 21.8867 36.1168C21.669 36.5372 21.365 36.905 20.9747 37.2203C20.4492 37.6406 20.0476 37.9934 19.7699 38.2787C19.4921 38.5564 19.3045 38.8116 19.2069 39.0443C19.1093 39.2695 19.0605 39.521 19.0605 39.7987V41.9381C19.0605 42.1933 19.1318 42.3997 19.2745 42.5574C19.4246 42.7225 19.6198 42.8051 19.86 42.8051H21.7516C21.9918 42.8051 22.1832 42.7488 22.3258 42.6362C22.476 42.5236 22.551 42.3659 22.551 42.1633C22.551 41.893 22.4422 41.6603 22.2245 41.4652C22.0143 41.2775 21.6953 41.1536 21.2674 41.0936C21.0347 41.0486 20.8808 40.9285 20.8058 40.7333C20.7307 40.5456 20.7307 40.3505 20.8058 40.1478C20.8808 39.9451 21.0347 39.81 21.2674 39.7424C22.8438 39.3371 23.996 38.7403 24.7241 37.9521C25.4598 37.1565 25.8276 36.0192 25.8276 34.5405C25.8276 34.2552 25.9477 34.0525 26.1879 33.9324C26.4356 33.8123 26.6908 33.8611 26.9536 34.0788C27.5391 34.5442 28.2634 34.9195 29.1267 35.2048C29.9899 35.49 30.9282 35.6402 31.9416 35.6552C32.9625 35.6702 33.9984 35.5013 35.0493 35.1485C35.3345 35.0509 35.5822 35.0659 35.7924 35.1935C36.0026 35.3136 36.1077 35.5088 36.1077 35.779C36.1077 36.1318 36.0739 36.6573 36.0063 37.3554C35.9388 38.046 35.8712 38.8004 35.8037 39.6186C35.7361 40.4368 35.7023 41.2099 35.7023 41.9381C35.7023 42.2308 35.7661 42.4485 35.8937 42.5911C36.0213 42.7338 36.224 42.8051 36.5018 42.8051H38.3821C38.6449 42.8051 38.8438 42.7525 38.9789 42.6474C39.114 42.5423 39.1816 42.381 39.1816 42.1633C39.1816 41.9906 39.114 41.7955 38.9789 41.5778C38.8438 41.3676 38.5097 41.1799 37.9768 41.0148C37.7591 40.9322 37.6127 40.8196 37.5376 40.677C37.4701 40.5419 37.4363 40.3917 37.4363 40.2266C37.4363 39.8813 37.4663 39.4609 37.5264 38.9655C37.5939 38.4701 37.6765 37.9559 37.7741 37.4229C37.8717 36.89 37.9768 36.3871 38.0894 35.9141C38.2095 35.4412 38.3146 35.0547 38.4046 34.7544C38.6373 34.0488 38.8813 33.4408 39.1365 32.9303C39.3917 32.4199 39.6057 31.9357 39.7783 31.4778C39.9585 31.0124 40.0486 30.5057 40.0486 29.9578C40.0486 29.1921 40.1311 28.524 40.2963 27.9536C40.4614 27.3756 40.7617 26.7675 41.197 26.1295C41.3322 25.9193 41.5048 25.803 41.715 25.7804C41.9327 25.7504 42.1541 25.8067 42.3793 25.9493C42.8372 26.2721 43.22 26.4973 43.5278 26.6249C43.8356 26.745 44.1583 26.8051 44.4961 26.8051C44.8865 26.8051 45.2693 26.6775 45.6446 26.4222C46.0274 26.167 46.339 25.8517 46.5792 25.4764C46.8269 25.1011 46.9507 24.7295 46.9507 24.3617C46.9507 24.114 46.8719 23.9188 46.7143 23.7762C46.5566 23.6261 46.3427 23.4797 46.0725 23.3371C45.8023 23.187 45.4907 22.9918 45.1379 22.7516C44.635 22.4213 44.2071 22.0685 43.8543 21.6932C43.5015 21.3179 43.0999 21.0251 42.6495 20.8149L43.0211 18.9233C43.4715 19.1185 43.8656 19.3512 44.2034 19.6214C44.5412 19.8841 44.8715 20.1656 45.1942 20.4659C45.517 20.7661 45.8773 21.0514 46.2752 21.3216C46.5979 21.5318 46.9733 21.7757 47.4011 22.0535C47.829 22.3237 48.2006 22.6277 48.5158 22.9655C48.8386 23.3033 49 23.6749 49 24.0802C49 24.7108 48.8724 25.315 48.6172 25.893C48.362 26.4635 48.0167 26.974 47.5813 27.4243C47.1459 27.8747 46.658 28.2313 46.1175 28.494C45.5846 28.7492 45.0441 28.8768 44.4961 28.8768C44.1133 28.8768 43.753 28.8281 43.4152 28.7305C43.0774 28.6329 42.7359 28.4903 42.3906 28.3026C42.3155 28.4903 42.2479 28.7117 42.1879 28.9669C42.1353 29.2221 42.1091 29.5524 42.1091 29.9578C42.1091 30.761 42.0002 31.4703 41.7825 32.0859C41.5724 32.6939 41.3322 33.2569 41.0619 33.7748C40.7917 34.2928 40.5665 34.8182 40.3863 35.3512C40.3038 35.5914 40.2175 35.8954 40.1274 36.2632C40.0373 36.631 39.951 37.0251 39.8684 37.4455C39.7858 37.8583 39.7108 38.2637 39.6432 38.6615C39.5832 39.0518 39.5456 39.3934 39.5306 39.6861C39.9735 39.8813 40.3188 40.1178 40.5665 40.3955C40.8142 40.6807 40.9906 40.9848 41.0957 41.3075C41.2008 41.6303 41.2533 41.9531 41.2533 42.2759C41.2533 42.7563 41.1445 43.1954 40.9268 43.5932C40.7091 43.9911 40.3863 44.3101 39.9585 44.5503C39.5306 44.798 39.0052 44.9219 38.3821 44.9219H36.4455C35.5297 44.9219 34.8278 44.6704 34.3399 44.1675C33.8595 43.6721 33.6193 42.9552 33.6193 42.0169C33.6193 41.7767 33.6305 41.4802 33.6531 41.1274C33.6756 40.7821 33.7019 40.3993 33.7319 39.9789C33.7619 39.566 33.7919 39.1494 33.822 38.7291C33.852 38.3012 33.8745 37.8996 33.8895 37.5243C33.0788 37.5993 32.2869 37.6294 31.5137 37.6144C30.7481 37.5993 30.0274 37.5243 29.3519 37.3892C28.6763 37.2465 28.0683 37.0364 27.5278 36.7586C27.2951 37.7194 26.8672 38.5452 26.2442 39.2358C25.6287 39.9263 24.8367 40.4856 23.8684 40.9134C24.1311 41.0861 24.3225 41.315 24.4426 41.6003C24.5627 41.8855 24.6228 42.182 24.6228 42.4898C24.6228 42.9027 24.514 43.2892 24.2963 43.6495C24.0786 44.0099 23.7671 44.3026 23.3617 44.5278C22.9639 44.7605 22.4985 44.8768 21.9655 44.8768H19.6235ZM40.5552 23.6861C40.1424 23.6861 39.7746 23.5735 39.4518 23.3483C39.129 23.1156 38.8438 22.8229 38.5961 22.4701C38.3559 22.1098 38.1532 21.7345 37.988 21.3441C37.8304 20.9463 37.7103 20.5747 37.6277 20.2294C37.5527 19.8841 37.5151 19.6139 37.5151 19.4187C37.5151 18.9608 37.639 18.6118 37.8867 18.3716C38.1344 18.1239 38.4985 18 38.9789 18H42.1429C42.6158 18 42.9723 18.1239 43.2125 18.3716C43.4602 18.6118 43.5841 18.9608 43.5841 19.4187C43.5841 19.6139 43.5428 19.8841 43.4602 20.2294C43.3852 20.5747 43.2651 20.9463 43.0999 21.3441C42.9423 21.7345 42.7434 22.1098 42.5032 22.4701C42.263 22.8229 41.9777 23.1156 41.6474 23.3483C41.3247 23.5735 40.9606 23.6861 40.5552 23.6861ZM40.5552 21.8958C40.6829 21.8958 40.8067 21.8358 40.9268 21.7157C41.0544 21.5881 41.167 21.4304 41.2646 21.2428C41.3697 21.0476 41.456 20.8449 41.5236 20.6348C41.5986 20.4246 41.6549 20.2294 41.6925 20.0493C41.7075 19.9817 41.6925 19.9254 41.6474 19.8804C41.6099 19.8278 41.5574 19.8015 41.4898 19.8015H39.6319C39.5569 19.8015 39.4968 19.8278 39.4518 19.8804C39.4143 19.9254 39.403 19.9817 39.418 20.0493C39.4555 20.2294 39.5081 20.4246 39.5757 20.6348C39.6507 20.8449 39.737 21.0476 39.8346 21.2428C39.9397 21.4304 40.0523 21.5881 40.1724 21.7157C40.2925 21.8358 40.4201 21.8958 40.5552 21.8958ZM43.6066 24.3617C43.3589 24.3617 43.1525 24.2754 42.9873 24.1027C42.8222 23.9301 42.7396 23.7237 42.7396 23.4835C42.7396 23.2433 42.8222 23.0406 42.9873 22.8754C43.1525 22.7103 43.3589 22.6277 43.6066 22.6277C43.8468 22.6277 44.0495 22.7103 44.2146 22.8754C44.3798 23.0406 44.4623 23.2433 44.4623 23.4835C44.4623 23.7237 44.3798 23.9301 44.2146 24.1027C44.0495 24.2754 43.8468 24.3617 43.6066 24.3617Z" fill="#202020" style="fill:#202020;fill:color(display-p3 0.1250 0.1250 0.1250);fill-opacity:1;"/>
</svg>
