<svg width="64" height="64" viewBox="0 0 64 64" fill="none" xmlns="http://www.w3.org/2000/svg">
<rect width="64" height="64" rx="32" fill="#D7E8FF" style="fill:#D7E8FF;fill:color(display-p3 0.8431 0.9098 1.0000);fill-opacity:1;"/>
<path fill-rule="evenodd" clip-rule="evenodd" d="M30.1152 25.4834C30.6508 25.6331 31.2791 25.7079 32 25.7079C32.8577 25.7079 33.5823 25.6044 34.1738 25.3974C34.7652 25.1904 35.273 24.939 35.6969 24.6433C36.1306 24.3376 36.52 24.037 36.8651 23.7412C37.2101 23.4356 37.5551 23.1793 37.9002 22.9723C38.2551 22.7652 38.6593 22.6617 39.1128 22.6617C39.5662 22.6617 39.9655 22.7652 40.3105 22.9723C40.6556 23.1793 40.9957 23.4356 41.3309 23.7412C41.6759 24.037 42.0702 24.3376 42.5139 24.6433C42.9673 24.939 43.5145 25.1904 44.1553 25.3974C44.7961 25.6044 45.5995 25.7079 46.5656 25.7079H46.6691C47.0339 25.7079 47.3444 25.5798 47.6007 25.3235C47.8669 25.0573 48 24.7369 48 24.3623C48 23.9975 47.8669 23.687 47.6007 23.4307C47.3444 23.1645 47.0339 23.0314 46.6691 23.0314H46.5656C45.8657 23.0314 45.2643 22.9033 44.7616 22.647C44.2588 22.3906 43.7116 22.0456 43.1201 21.6118C42.6272 21.2569 42.0505 20.902 41.39 20.5471C40.7394 20.1824 39.9803 20 39.1128 20C38.2157 20 37.4368 20.1873 36.7763 20.5619C36.1158 20.9365 35.5391 21.3062 35.0462 21.671C34.5336 22.0555 34.0505 22.3808 33.597 22.647C33.1534 22.9033 32.6211 23.0314 32 23.0314C31.3789 23.0314 30.8417 22.9033 30.3882 22.647C29.9445 22.3808 29.4664 22.0555 28.9538 21.671C28.4707 21.3062 27.899 20.9365 27.2384 20.5619C26.5779 20.1873 25.7991 20 24.902 20C24.0246 20 23.2606 20.1824 22.61 20.5471C21.9593 20.902 21.3876 21.2569 20.8946 21.6118C20.2933 22.0456 19.7412 22.3906 19.2384 22.647C18.7357 22.9033 18.1343 23.0314 17.4344 23.0314H17.3457C16.971 23.0314 16.6506 23.1645 16.3845 23.4307C16.1282 23.687 16 23.9975 16 24.3623C16 24.7369 16.1282 25.0573 16.3845 25.3235C16.6506 25.5798 16.971 25.7079 17.3457 25.7079H17.4344C18.3906 25.7079 19.1941 25.6044 19.8447 25.3974C20.4954 25.1904 21.0425 24.939 21.4861 24.6433C21.9298 24.3376 22.3192 24.037 22.6543 23.7412C22.9994 23.4356 23.3444 23.1793 23.6895 22.9723C24.0345 22.7652 24.4387 22.6617 24.902 22.6617C25.3555 22.6617 25.7548 22.7652 26.0998 22.9723C26.4547 23.1793 26.8047 23.4356 27.1497 23.7412C27.4948 24.037 27.8792 24.3376 28.3031 24.6433C28.7259 24.9315 29.2236 25.1776 29.7963 25.3816C29.3694 25.3932 28.9726 25.4897 28.6061 25.6711C28.2285 25.8558 27.8758 26.1216 27.5481 26.4687C27.294 26.2351 27.0268 26.036 26.7465 25.8713C26.4663 25.7067 26.1766 25.571 25.8773 25.4642C25.9082 25.3129 25.9581 25.1705 26.0269 25.0371C26.0934 24.9014 26.2039 24.7367 26.3582 24.5432C26.4366 24.4497 26.4687 24.3652 26.4544 24.2896C26.4402 24.2117 26.3867 24.1494 26.2941 24.1027C25.9996 23.9514 25.6885 23.8546 25.3608 23.8124C25.033 23.7701 24.7077 23.7779 24.3847 23.8357C24.0617 23.8936 23.7589 23.9959 23.4762 24.1427C23.1936 24.2896 22.949 24.4764 22.7424 24.7034C22.5334 24.9281 22.3814 25.1872 22.2864 25.4809C21.9563 25.5855 21.6416 25.7123 21.3424 25.8613C21.0407 26.0082 20.7736 26.1739 20.5408 26.3586C20.3057 26.541 20.1216 26.7401 19.9886 26.9559C19.8533 27.1717 19.7856 27.3975 19.7856 27.6333C19.7856 27.8803 19.8556 28.1139 19.9958 28.3341C20.1359 28.5521 20.3283 28.7546 20.5729 28.9415C20.8151 29.1261 21.0918 29.293 21.4029 29.442C21.6378 29.5546 21.8802 29.6538 22.13 29.7397C21.6743 30.0082 21.2625 30.2712 20.8946 30.5287C20.2933 30.9624 19.7412 31.3075 19.2384 31.5638C18.7357 31.8201 18.1343 31.9482 17.4344 31.9482H17.3457C16.971 31.9482 16.6506 32.0813 16.3845 32.3475C16.1282 32.6038 16 32.9193 16 33.2939C16 33.6587 16.1282 33.9741 16.3845 34.2403C16.6506 34.4966 16.971 34.6248 17.3457 34.6248H17.4344C18.3906 34.6248 19.1941 34.5213 19.8447 34.3142C20.4954 34.1072 21.0425 33.8558 21.4861 33.5601C21.9298 33.2545 22.3192 32.9538 22.6543 32.658C22.9994 32.3524 23.3444 32.0961 23.6895 31.8891C24.0345 31.6821 24.4387 31.5786 24.902 31.5786C25.3555 31.5786 25.7548 31.6821 26.0998 31.8891C26.4547 32.0961 26.8047 32.3524 27.1497 32.658C27.4948 32.9538 27.8792 33.2545 28.3031 33.5601C28.7369 33.8558 29.2495 34.1072 29.841 34.3142C30.4325 34.5213 31.1522 34.6248 32 34.6248C32.8577 34.6248 33.5823 34.5213 34.1738 34.3142C34.7652 34.1072 35.273 33.8558 35.6969 33.5601C36.1306 33.2545 36.52 32.9538 36.8651 32.658C37.2101 32.3524 37.5551 32.0961 37.9002 31.8891C38.2551 31.6821 38.6593 31.5786 39.1128 31.5786C39.5662 31.5786 39.9655 31.6821 40.3105 31.8891C40.5893 32.0564 40.8649 32.2558 41.1372 32.4874C40.9333 32.4106 40.7219 32.3581 40.5031 32.3299C40.1754 32.2876 39.85 32.2954 39.527 32.3533C39.204 32.4111 38.9012 32.5135 38.6186 32.6603C38.336 32.8071 38.0913 32.994 37.8847 33.2209C37.6757 33.4456 37.5237 33.7048 37.4287 33.9985C37.0986 34.103 36.7839 34.2298 36.4847 34.3789C36.1831 34.5257 35.9159 34.6915 35.6831 34.8761C35.448 35.0585 35.264 35.2577 35.131 35.4735C34.9956 35.6893 34.9279 35.9151 34.9279 36.1509C34.9279 36.3978 34.998 36.6314 35.1381 36.8517C35.2782 37.0697 35.4706 37.2721 35.7152 37.459C35.9574 37.6437 36.2341 37.8105 36.5452 37.9596C36.7436 38.0546 36.9473 38.1401 37.1562 38.2162C37.0255 38.2743 36.8989 38.339 36.7763 38.4104C36.1158 38.785 35.5391 39.1497 35.0462 39.5046C34.5336 39.899 34.0505 40.2292 33.597 40.4954C33.1534 40.7517 32.6211 40.8799 32 40.8799C31.3789 40.8799 30.8417 40.7517 30.3882 40.4954C29.9445 40.2292 29.4664 39.899 28.9538 39.5046C28.4707 39.1497 27.899 38.785 27.2384 38.4104C26.5779 38.0259 25.7991 37.8336 24.902 37.8336C24.0246 37.8336 23.2606 38.016 22.61 38.3808C21.9593 38.7455 21.3876 39.1054 20.8946 39.4603C20.2933 39.8842 19.7412 40.2292 19.2384 40.4954C18.7357 40.7517 18.1343 40.8799 17.4344 40.8799H17.3457C16.971 40.8799 16.6506 41.0129 16.3845 41.2791C16.1282 41.5354 16 41.846 16 42.2107C16 42.5755 16.1282 42.886 16.3845 43.1423C16.6506 43.4085 16.971 43.5416 17.3457 43.5416H17.4344C18.3906 43.5416 19.1941 43.4381 19.8447 43.2311C20.4954 43.0339 21.0425 42.7825 21.4861 42.4769C21.9298 42.1713 22.3192 41.8706 22.6543 41.5749C22.9994 41.2693 23.3444 41.0179 23.6895 40.8207C24.0345 40.6137 24.4387 40.5102 24.902 40.5102C25.3555 40.5102 25.7548 40.6137 26.0998 40.8207C26.4547 41.0179 26.8047 41.2693 27.1497 41.5749C27.4948 41.8706 27.8792 42.1713 28.3031 42.4769C28.7369 42.7825 29.2495 43.0339 29.841 43.2311C30.4325 43.4381 31.1522 43.5416 32 43.5416C32.8577 43.5416 33.5823 43.4381 34.1738 43.2311C34.7652 43.0339 35.273 42.7825 35.6969 42.4769C36.1306 42.1713 36.52 41.8706 36.8651 41.5749C37.2101 41.2693 37.5551 41.0179 37.9002 40.8207C38.2551 40.6137 38.6593 40.5102 39.1128 40.5102C39.5662 40.5102 39.9655 40.6137 40.3105 40.8207C40.6556 41.0179 40.9957 41.2693 41.3309 41.5749C41.6759 41.8706 42.0702 42.1713 42.5139 42.4769C42.9673 42.7825 43.5145 43.0339 44.1553 43.2311C44.7961 43.4381 45.5995 43.5416 46.5656 43.5416H46.6691C47.0339 43.5416 47.3444 43.4085 47.6007 43.1423C47.8669 42.886 48 42.5755 48 42.2107C48 41.846 47.8669 41.5354 47.6007 41.2791C47.3444 41.0129 47.0339 40.8799 46.6691 40.8799H46.5656C45.8657 40.8799 45.2643 40.7517 44.7616 40.4954C44.2588 40.2292 43.7116 39.8842 43.1201 39.4603C42.6272 39.1054 42.0505 38.7455 41.39 38.3808C41.3186 38.3408 41.246 38.303 41.172 38.2673C41.3248 38.2082 41.4758 38.1412 41.6253 38.0664C42.0029 37.875 42.3579 37.627 42.6904 37.3222C43.0182 37.6693 43.3708 37.9362 43.7485 38.1231C44.1261 38.3078 44.5358 38.4034 44.9775 38.4101C45.0772 38.4123 45.1592 38.389 45.2233 38.34C45.2851 38.2888 45.3195 38.2177 45.3266 38.1264C45.3527 37.8862 45.3349 37.6448 45.2732 37.4023C45.2114 37.1598 45.1152 36.9307 44.9846 36.7149C44.854 36.4991 44.6996 36.3111 44.5215 36.1509C44.6996 35.9929 44.854 35.8072 44.9846 35.5936C45.1152 35.3778 45.2114 35.1486 45.2732 34.9061C45.3027 34.79 45.3222 34.6742 45.3317 34.5586C45.7083 34.6027 46.1196 34.6248 46.5656 34.6248H46.6691C47.0339 34.6248 47.3444 34.4966 47.6007 34.2403C47.8669 33.9741 48 33.6587 48 33.2939C48 32.9193 47.8669 32.6038 47.6007 32.3475C47.3444 32.0813 47.0339 31.9482 46.6691 31.9482H46.5656C45.8657 31.9482 45.2643 31.8201 44.7616 31.5638C44.2588 31.3075 43.7116 30.9624 43.1201 30.5287C42.6272 30.1836 42.0505 29.8287 41.39 29.464C40.7394 29.0992 39.9803 28.9168 39.1128 28.9168C38.2157 28.9168 37.4368 29.1091 36.7763 29.4935C36.1158 29.8681 35.5391 30.2329 35.0462 30.5878C34.5336 30.9821 34.0505 31.3075 33.597 31.5638C33.1534 31.8201 32.6211 31.9482 32 31.9482C31.3789 31.9482 30.8417 31.8201 30.3882 31.5638C29.9445 31.3075 29.4664 30.9821 28.9538 30.5878C28.4707 30.2329 27.899 29.8681 27.2384 29.4935C27.1262 29.4282 27.0104 29.3684 26.8913 29.3141C27.1192 29.1669 27.3382 28.9971 27.5481 28.8046C27.8758 29.1517 28.2285 29.4187 28.6061 29.6055C28.9837 29.7902 29.3934 29.8859 29.8352 29.8925C29.9349 29.8948 30.0168 29.8714 30.081 29.8225C30.1427 29.7713 30.1772 29.7001 30.1843 29.6089C30.2104 29.3686 30.1926 29.1272 30.1308 28.8847C30.0691 28.6422 29.9729 28.4131 29.8423 28.1973C29.7117 27.9815 29.5573 27.7935 29.3792 27.6333C29.5573 27.4754 29.7117 27.2896 29.8423 27.076C29.9729 26.8602 30.0691 26.6311 30.1308 26.3886C30.1926 26.1461 30.2104 25.9047 30.1843 25.6644C30.1786 25.59 30.1556 25.5296 30.1152 25.4834ZM43.7676 34.1793C43.2909 34.0007 42.873 33.7943 42.5139 33.5601C42.1803 33.3303 41.8746 33.1033 41.5968 32.8791C41.587 32.9354 41.5549 32.9959 41.5006 33.0607C41.3462 33.2543 41.2358 33.4189 41.1693 33.5546C41.1004 33.6881 41.0505 33.8305 41.0196 33.9818C41.3189 34.0886 41.6086 34.2243 41.8889 34.3889C42.1691 34.5535 42.4363 34.7526 42.6904 34.9862C43.0182 34.6392 43.3708 34.3733 43.7485 34.1887C43.7548 34.1855 43.7612 34.1824 43.7676 34.1793ZM21.8304 27.8602C21.7212 27.8602 21.6262 27.8224 21.5454 27.7468C21.4623 27.6711 21.4207 27.5822 21.4207 27.4798C21.4207 27.3753 21.4623 27.2852 21.5454 27.2095C21.6262 27.1339 21.7212 27.0961 21.8304 27.0961C21.942 27.0961 22.0382 27.1339 22.119 27.2095C22.1997 27.2852 22.2401 27.3753 22.2401 27.4798C22.2401 27.5822 22.1997 27.6711 22.119 27.7468C22.0382 27.8224 21.942 27.8602 21.8304 27.8602ZM36.9727 36.3778C36.8635 36.3778 36.7685 36.34 36.6877 36.2643C36.6046 36.1887 36.5631 36.0997 36.5631 35.9974C36.5631 35.8928 36.6046 35.8027 36.6877 35.7271C36.7685 35.6514 36.8635 35.6136 36.9727 35.6136C37.0844 35.6136 37.1805 35.6514 37.2613 35.7271C37.342 35.8027 37.3824 35.8928 37.3824 35.9974C37.3824 36.0997 37.342 36.1887 37.2613 36.2643C37.1805 36.34 37.0844 36.3778 36.9727 36.3778Z" fill="#202020" style="fill:#202020;fill:color(display-p3 0.1250 0.1250 0.1250);fill-opacity:1;"/>
</svg>
