<svg width="64" height="64" viewBox="0 0 64 64" fill="none" xmlns="http://www.w3.org/2000/svg">
<rect width="64" height="64" rx="32" fill="#D7E8FF" style="fill:#D7E8FF;fill:color(display-p3 0.8431 0.9098 1.0000);fill-opacity:1;"/>
<path d="M32 24.7079C31.1522 24.7079 30.4325 24.6044 29.841 24.3974C29.2495 24.1904 28.7369 23.939 28.3031 23.6433C27.8792 23.3376 27.4948 23.037 27.1497 22.7412C26.8047 22.4356 26.4547 22.1793 26.0998 21.9723C25.7548 21.7652 25.3555 21.6617 24.902 21.6617C24.4387 21.6617 24.0345 21.7652 23.6895 21.9723C23.3444 22.1793 22.9994 22.4356 22.6543 22.7412C22.3192 23.037 21.9298 23.3376 21.4861 23.6433C21.0425 23.939 20.4954 24.1904 19.8447 24.3974C19.1941 24.6044 18.3906 24.7079 17.4344 24.7079H17.3457C16.971 24.7079 16.6506 24.5798 16.3845 24.3235C16.1282 24.0573 16 23.7369 16 23.3623C16 22.9975 16.1282 22.687 16.3845 22.4307C16.6506 22.1645 16.971 22.0314 17.3457 22.0314H17.4344C18.1343 22.0314 18.7357 21.9033 19.2384 21.647C19.7412 21.3906 20.2933 21.0456 20.8946 20.6118C21.3876 20.2569 21.9593 19.902 22.61 19.5471C23.2606 19.1824 24.0246 19 24.902 19C25.7991 19 26.5779 19.1873 27.2384 19.5619C27.899 19.9365 28.4707 20.3062 28.9538 20.671C29.4664 21.0555 29.9445 21.3808 30.3882 21.647C30.8417 21.9033 31.3789 22.0314 32 22.0314C32.6211 22.0314 33.1534 21.9033 33.597 21.647C34.0505 21.3808 34.5336 21.0555 35.0462 20.671C35.5391 20.3062 36.1158 19.9365 36.7763 19.5619C37.4368 19.1873 38.2157 19 39.1128 19C39.9803 19 40.7394 19.1824 41.39 19.5471C42.0505 19.902 42.6272 20.2569 43.1201 20.6118C43.7116 21.0456 44.2588 21.3906 44.7616 21.647C45.2643 21.9033 45.8657 22.0314 46.5656 22.0314H46.6691C47.0339 22.0314 47.3444 22.1645 47.6007 22.4307C47.8669 22.687 48 22.9975 48 23.3623C48 23.7369 47.8669 24.0573 47.6007 24.3235C47.3444 24.5798 47.0339 24.7079 46.6691 24.7079H46.5656C45.5995 24.7079 44.7961 24.6044 44.1553 24.3974C43.5145 24.1904 42.9673 23.939 42.5139 23.6433C42.0702 23.3376 41.6759 23.037 41.3309 22.7412C40.9957 22.4356 40.6556 22.1793 40.3105 21.9723C39.9655 21.7652 39.5662 21.6617 39.1128 21.6617C38.6593 21.6617 38.2551 21.7652 37.9002 21.9723C37.5551 22.1793 37.2101 22.4356 36.8651 22.7412C36.52 23.037 36.1306 23.3376 35.6969 23.6433C35.273 23.939 34.7652 24.1904 34.1738 24.3974C33.5823 24.6044 32.8577 24.7079 32 24.7079ZM24.902 30.6821C24.4387 30.6821 24.0345 30.7856 23.6895 30.9926C23.3444 31.1996 22.9994 31.4559 22.6543 31.7616C22.3192 32.0573 21.9298 32.358 21.4861 32.6636C21.0425 32.9593 20.4954 33.2107 19.8447 33.4177C19.1941 33.6248 18.3906 33.7283 17.4344 33.7283H17.3457C16.971 33.7283 16.6506 33.6001 16.3845 33.3438C16.1282 33.0776 16 32.7622 16 32.3974C16 32.0228 16.1282 31.7073 16.3845 31.451C16.6506 31.1848 16.971 31.0518 17.3457 31.0518H17.4344C18.1343 31.0518 18.7357 30.9236 19.2384 30.6673C19.7412 30.411 20.2933 30.0659 20.8946 29.6322C21.3876 29.2871 21.9593 28.9322 22.61 28.5675C23.2606 28.2027 24.0246 28.0203 24.902 28.0203C25.4738 28.0203 25.9963 28.1091 26.4695 28.2865C26.9427 28.464 27.3765 28.671 27.7708 28.9076C27.8891 28.9864 28.0025 29.0653 28.1109 29.1442C28.2292 29.223 28.3524 29.2921 28.4806 29.3512C28.4116 29.647 28.3524 29.9575 28.3031 30.2828C28.2637 30.6081 28.244 30.9384 28.244 31.2736V32.5305C27.9187 32.3432 27.6229 32.146 27.3567 31.939C27.1004 31.7221 26.8441 31.52 26.5878 31.3327C26.3413 31.1356 26.0801 30.9778 25.8041 30.8595C25.5379 30.7412 25.2372 30.6821 24.902 30.6821ZM39.1128 30.6821C38.7677 30.6821 38.4572 30.7412 38.1811 30.8595C37.915 30.9778 37.6587 31.1306 37.4122 31.3179C37.1657 31.5052 36.9094 31.7073 36.6433 31.9242C36.3771 32.1411 36.0863 32.3432 35.7708 32.5305V31.2736C35.7708 30.9384 35.7461 30.6081 35.6969 30.2828C35.6574 29.9575 35.5983 29.647 35.5194 29.3512C35.6377 29.2921 35.7511 29.228 35.8595 29.159C35.968 29.0801 36.0813 29.0062 36.1996 28.9372C36.6038 28.6907 37.0425 28.4787 37.5157 28.3013C37.9889 28.114 38.5213 28.0203 39.1128 28.0203C39.9803 28.0203 40.7394 28.2027 41.39 28.5675C42.0505 28.9322 42.6272 29.2871 43.1201 29.6322C43.7116 30.0659 44.2588 30.411 44.7616 30.6673C45.2643 30.9236 45.8657 31.0518 46.5656 31.0518H46.6691C47.0339 31.0518 47.3444 31.1848 47.6007 31.451C47.8669 31.7073 48 32.0228 48 32.3974C48 32.7622 47.8669 33.0776 47.6007 33.3438C47.3444 33.6001 47.0339 33.7283 46.6691 33.7283H46.5656C45.5995 33.7283 44.7961 33.6248 44.1553 33.4177C43.5145 33.2107 42.9673 32.9593 42.5139 32.6636C42.0702 32.358 41.6759 32.0573 41.3309 31.7616C40.9957 31.4559 40.6556 31.1996 40.3105 30.9926C39.9655 30.7856 39.5662 30.6821 39.1128 30.6821ZM27.8004 37.0998H36.1405C36.5052 37.0998 36.7911 37.1984 36.9982 37.3956C37.2052 37.5829 37.3136 37.8244 37.3235 38.1201C37.3432 38.406 37.2397 38.687 37.0129 38.963L32.9908 44.1386C32.6852 44.5231 32.345 44.7153 31.9704 44.7153C31.6057 44.7153 31.2705 44.5231 30.9649 44.1386L26.9427 38.9778C26.716 38.6919 26.6075 38.406 26.6174 38.1201C26.6371 37.8244 26.7505 37.5829 26.9575 37.3956C27.1645 37.1984 27.4455 37.0998 27.8004 37.0998ZM30.4917 38.5786V28.9963C30.4917 28.602 30.6346 28.2569 30.9205 27.9612C31.2163 27.6654 31.5761 27.5176 32 27.5176C32.414 27.5176 32.7689 27.6654 33.0647 27.9612C33.3604 28.2569 33.5083 28.602 33.5083 28.9963V38.5786H30.4917Z" fill="#202020" style="fill:#202020;fill:color(display-p3 0.1250 0.1250 0.1250);fill-opacity:1;"/>
</svg>
