<svg width="64" height="64" viewBox="0 0 64 64" fill="none" xmlns="http://www.w3.org/2000/svg">
<rect width="64" height="64" rx="32" fill="#D7E8FF" style="fill:#D7E8FF;fill:color(display-p3 0.8431 0.9098 1.0000);fill-opacity:1;"/>
<path d="M25.9305 40C25.3165 40 24.8171 39.8673 24.4324 39.6018C24.0551 39.3437 23.7851 39.0118 23.6223 38.6062C23.467 38.208 23.4263 37.7802 23.5003 37.323C23.5816 36.8584 23.774 36.427 24.0773 36.0288L35.2964 21.3717C35.7625 20.7596 36.2841 20.354 36.8611 20.1549C37.4456 19.9484 38.0263 19.9484 38.6033 20.1549C39.1804 20.354 39.702 20.7559 40.168 21.3606L51.3983 36.0177C51.7016 36.4159 51.8902 36.8473 51.9642 37.3119C52.0382 37.7692 51.9975 38.2006 51.8421 38.6062C51.6868 39.0118 51.4167 39.3437 51.0321 39.6018C50.6474 39.8673 50.1517 40 49.545 40H25.9305ZM26.7295 37.6438H48.735C48.9569 37.6438 49.1049 37.5627 49.1788 37.4004C49.2528 37.2382 49.2232 37.0723 49.0901 36.9027L38.3148 22.8097C38.1595 22.6106 37.9671 22.5111 37.7378 22.5111C37.5084 22.5111 37.3124 22.6143 37.1496 22.8208L26.3744 36.9027C26.2486 37.0723 26.219 37.2382 26.2856 37.4004C26.3596 37.5627 26.5076 37.6438 26.7295 37.6438ZM34.0203 30.5973C33.5542 30.5973 33.151 30.5052 32.8107 30.3208C32.4704 30.1364 32.1671 29.9226 31.9007 29.6792C31.6344 29.4285 31.394 29.2035 31.1794 29.0044L32.1227 27.7102C32.4704 28.0052 32.7959 28.2891 33.0992 28.5619C33.4025 28.8274 33.7095 28.9602 34.0203 28.9602C34.2866 28.9602 34.5492 28.8864 34.8082 28.7389C35.0745 28.5841 35.3519 28.4108 35.6404 28.219C35.929 28.0199 36.2434 27.8466 36.5837 27.6991C36.924 27.5442 37.305 27.4668 37.7267 27.4668C38.1706 27.4668 38.5627 27.5442 38.903 27.6991C39.2507 27.8466 39.5651 28.0199 39.8462 28.219C40.1273 28.4108 40.3974 28.5841 40.6563 28.7389C40.9226 28.8864 41.189 28.9602 41.4553 28.9602C41.7586 28.9602 42.0545 28.8274 42.3431 28.5619C42.639 28.2965 42.9571 28.0162 43.2974 27.7212L44.3072 29.0155C44.0927 29.1999 43.8523 29.4174 43.5859 29.6681C43.327 29.9115 43.0237 30.1291 42.676 30.3208C42.3283 30.5052 41.9214 30.5973 41.4553 30.5973C40.9596 30.5973 40.5305 30.5236 40.168 30.3761C39.8055 30.2212 39.4837 30.0442 39.2026 29.8451C38.9289 29.646 38.6736 29.4727 38.4369 29.3252C38.2076 29.1704 37.9708 29.0929 37.7267 29.0929C37.4973 29.0929 37.2643 29.1704 37.0276 29.3252C36.7908 29.4727 36.5356 29.646 36.2619 29.8451C35.9881 30.0442 35.6663 30.2212 35.2964 30.3761C34.9339 30.5236 34.5085 30.5973 34.0203 30.5973ZM28.3386 33.3296L23.6556 27.4115C23.4929 27.1976 23.3042 27.0944 23.0897 27.1018C22.8825 27.1018 22.6976 27.2087 22.5348 27.4226L14.9666 36.9027C14.8408 37.0649 14.8113 37.2271 14.8778 37.3894C14.9518 37.5516 15.0961 37.6327 15.3106 37.6327H25.9416V40H14.3119C13.7496 40 13.2873 39.8746 12.9248 39.6239C12.5623 39.3732 12.3033 39.0487 12.148 38.6504C12 38.2522 11.963 37.8282 12.037 37.3783C12.111 36.9285 12.307 36.4971 12.6251 36.0841L20.6705 25.9624C21.144 25.3577 21.6655 24.9558 22.2352 24.7566C22.8122 24.5575 23.3856 24.5575 23.9552 24.7566C24.5323 24.9558 25.0538 25.354 25.5199 25.9513L29.8034 31.3717L28.3386 33.3296ZM19.8715 33.2412C19.4646 33.2412 19.1095 33.1527 18.8062 32.9757C18.5029 32.7987 18.2365 32.5959 18.0072 32.3673C17.7779 32.1313 17.567 31.9285 17.3747 31.7588L18.207 30.6305C18.5177 30.8886 18.8062 31.1468 19.0725 31.4049C19.3389 31.663 19.6052 31.792 19.8715 31.792C20.1896 31.792 20.5003 31.6851 20.8037 31.4712C21.107 31.2574 21.4436 31.0472 21.8135 30.8407C22.1834 30.6268 22.6162 30.5199 23.1119 30.5199C23.6149 30.5199 24.0514 30.6268 24.4213 30.8407C24.7912 31.0472 25.1278 31.2574 25.4311 31.4712C25.7345 31.6851 26.0452 31.792 26.3633 31.792C26.6074 31.792 26.8405 31.6999 27.0624 31.5155C27.2843 31.3237 27.5248 31.1173 27.7837 30.896L28.4495 32.1681C28.2054 32.4189 27.9169 32.6622 27.584 32.8982C27.2511 33.1268 26.8442 33.2412 26.3633 33.2412C25.9268 33.2412 25.5495 33.1785 25.2314 33.0531C24.9207 32.9204 24.6432 32.7692 24.3991 32.5996C24.155 32.4299 23.9293 32.2824 23.7222 32.1571C23.5224 32.0243 23.319 31.958 23.1119 31.958C22.9047 31.958 22.7013 32.0243 22.5015 32.1571C22.3018 32.2824 22.0798 32.4299 21.8357 32.5996C21.599 32.7692 21.3215 32.9204 21.0034 33.0531C20.6853 33.1785 20.308 33.2412 19.8715 33.2412Z" fill="#202020" style="fill:#202020;fill:color(display-p3 0.1250 0.1250 0.1250);fill-opacity:1;"/>
</svg>
